<svg width="15" height="15" viewBox="0 0 15 15" fill="none" xmlns="http://www.w3.org/2000/svg">
<path fill-rule="evenodd" clip-rule="evenodd" d="M2.40002 5.1C2.40002 2.28335 4.68337 0 7.50002 0C8.85263 0 10.1498 0.53732 11.1063 1.49376C12.0627 2.45019 12.6 3.7474 12.6 5.1C12.6 8.10414 9.61232 12.8438 8.21048 14.6515C8.04066 14.8715 7.7784 15.0002 7.50051 15C7.22262 14.9998 6.96055 14.8707 6.79106 14.6504C5.39006 12.838 2.40002 8.08614 2.40002 5.1ZM5.40005 4.5C5.40005 5.6598 6.34025 6.6 7.50005 6.6C8.65985 6.6 9.60005 5.6598 9.60005 4.5C9.60005 3.3402 8.65985 2.4 7.50005 2.4C6.34025 2.4 5.40005 3.3402 5.40005 4.5Z" fill="#8D9194"/>
</svg>
