<svg width="427" height="374" viewBox="0 0 427 374" fill="none" xmlns="http://www.w3.org/2000/svg">
<path d="M15.25 68.625H411.75C420.173 68.625 427 61.7978 427 53.375V15.25C427 6.82723 420.173 0 411.75 0H15.25C6.82723 0 0 6.82723 0 15.25V53.375C0 61.7978 6.82723 68.625 15.25 68.625ZM15.25 221.125H411.75C420.173 221.125 427 214.298 427 205.875V167.75C427 159.327 420.173 152.5 411.75 152.5H15.25C6.82723 152.5 0 159.327 0 167.75V205.875C0 214.298 6.82723 221.125 15.25 221.125ZM15.25 373.625H411.75C420.173 373.625 427 366.798 427 358.375V320.25C427 311.827 420.173 305 411.75 305H15.25C6.82723 305 0 311.827 0 320.25V358.375C0 366.798 6.82723 373.625 15.25 373.625Z" fill="white"/>
</svg>
