<svg width="15" height="15" viewBox="0 0 15 15" fill="none" xmlns="http://www.w3.org/2000/svg">
<path fill-rule="evenodd" clip-rule="evenodd" d="M15 3.50134V2.6998C15 2.20275 14.5971 1.7998 14.1 1.7998H0.9C0.402944 1.7998 0 2.20275 0 2.6998V3.50134L7.04118 7.6738C7.32407 7.84143 7.67587 7.84143 7.95876 7.6738L15 3.50134ZM6.73536 8.18944C6.96668 8.32706 7.23084 8.39973 7.5 8.3998C7.76916 8.39973 8.03332 8.32706 8.26464 8.18944L15 4.19836V12.2998C15 12.7969 14.5971 13.1998 14.1 13.1998H0.9C0.402944 13.1998 0 12.7969 0 12.2998V4.19836L6.73536 8.18944Z" fill="#8D9194"/>
</svg>
