<svg width="17" height="18" viewBox="0 0 17 18" fill="none" xmlns="http://www.w3.org/2000/svg">
<g opacity="0.57">
<path fill-rule="evenodd" clip-rule="evenodd" d="M11.5051 11.2247L16.1463 15.8658C16.404 16.1326 16.4003 16.5567 16.138 16.819C15.8757 17.0813 15.4516 17.085 15.1848 16.8273L10.5435 12.1863C7.86707 14.3513 3.96423 14.0426 1.66143 11.4837C-0.64137 8.92485 -0.538376 5.01118 1.89583 2.57698C4.33003 0.142776 8.2437 0.039782 10.8026 2.34258C13.3614 4.64539 13.6701 8.54822 11.5051 11.2247ZM1.38547 7.16882C1.38547 9.98547 3.66882 12.2688 6.48547 12.2688C9.30082 12.2657 11.5823 9.98417 11.5855 7.16882C11.5855 4.35217 9.30212 2.06882 6.48547 2.06882C3.66882 2.06882 1.38547 4.35217 1.38547 7.16882Z" fill="#41474C"/>
</g>
</svg>
